<svg id="flying-logo" viewBox="0 0 567 113" version="1.1" xmlns="http://www.w3.org/2000/svg"><path d="M41.3 3.2c.5-1.1 1.8-2.1 3.1-2.1h85.8c1.2 0 1.9.9 1.4 2.1l-10.8 26.1c-.5 1.1-1.9 2.1-3.1 2.1h-47s-.5 1.5-.8 2.1l-4.1 10.2c-.2.6-.8 2.1-.8 2.1h46.5c1.2 0 1.9.9 1.4 2.1l-9.6 23.9c-.5 1.1-1.8 2.1-3.1 2.1H53s-.7 1.5-.9 2.1l-13.2 32.3c-.5 1.1-1.9 2.1-3.1 2.1H1.6c-1.2 0-1.9-.9-1.4-2.1L41.3 3.2zm95 0c.5-1.1 1.9-2.1 3.1-2.1h35.5c1.2 0 1.8.9 1.4 2.1l-31.5 74.1c-.2.6-.9 2-.9 2h44.8c1.2 0 1.9.9 1.4 2.1l-10.8 26.8c-.5 1.1-1.8 2.1-3.1 2.1h-82c-1.2 0-1.9-.9-1.4-2.1l43.5-105z" id="Path"/><path d="M199.1 70.5c.3-.7.7-2 .7-2s-.4-1.7-.5-2.2L181.4 3.2c-.3-1.2.4-2.2 1.6-2.2h34.7c1.2 0 1.5 1 1.8 2.2l8.4 31.6c.1.6.5 2.2.5 2.2s.9-1.3 1.3-1.8l23-32.3c.4-.5 1.4-1.8 1.4-1.8h39.6c2.8-.2 3.2 1.9 2.5 3L237 73.2l-1.6 2s-.5 1.3-.8 1.8l-13.2 31.2c-.5 1.1-1.9 2.1-3.1 2.1h-32.9c-1.2 0-1.9-.9-1.4-2.1l15.1-37.7zm99.6-67.3c.5-1.1 1.9-2.1 3.1-2.1h32.6c1.2 0 1.9.9 1.4 2.1l-43.1 105c-.5 1.1-1.9 2.1-3.1 2.1h-33c-1.2 0-1.9-.9-1.4-2.1l43.5-105zm42.6 0c.5-1.1 1.9-2.1 3.1-2.1h26.5c1.2 0 2.6.9 3 2.1l18.4 50c.4 1.2.3.9.8 2.2 0 .1.6-1.4 1.2-2.5l21-49.8c.5-1.1 1.9-2.1 3.1-2.1h32.7c1.2 0 1.9.9 1.4 2.1l-44.3 104.5c-.5 1.1-1.9 2.1-3.1 2.1h-27.4c-1.2 0-2.6-.9-3-2.1L357 59.9c-.4-1.2-.9-2.3-1-2.3-.1 0-.5 1.3-1 2.4l-20 48.1c-.5 1.1-1.9 2.1-3.1 2.1h-32.6c-1.2 0-1.9-.9-1.4-2.1L341.3 3.2zm225 42.7l-.7-.1h-72c-1.2 0-2.6.9-3.1 2.1l-8.9 22.7c-.5 1.1.2 2.1 1.4 2.1h38.3c-6.2 6.5-15.5 9.8-24.4 10.7-10.1 1-33-1.2-29.4-22.3 3.7-21.4 22.3-33.2 41.6-32.3 17.1.7 18.7 10.1 18.7 10.1.2 1.2 1.4 2.2 2.6 2.2h34.4l.4-.3c.3-.4.2-.6.2-.8C564.9 15.2 542.6.1 512 0c-39.5-.1-70.2 21.9-78.8 60.9-6.3 28.7 12 52.1 54.1 52.1 49.8 0 71.4-32 77.4-52.8.6-2 2.2-8.3 1.9-12.6.1-.1.1-1.2-.3-1.7z" id="Path"/></svg>